<?xml version="1.0" standalone="no"?>
<!DOCTYPE svg PUBLIC "-//W3C//DTD SVG 20010904//EN"
 "http://www.w3.org/TR/2001/REC-SVG-20010904/DTD/svg10.dtd">
<svg version="1.0" xmlns="http://www.w3.org/2000/svg"
 width="512.000000pt" height="512.000000pt" viewBox="0 0 512.000000 512.000000"
 preserveAspectRatio="xMidYMid meet">
<metadata>
Created by potrace 1.11, written by Peter Selinger 2001-2013
</metadata>
<g transform="translate(0.000000,512.000000) scale(0.100000,-0.100000)"
fill="#000000" stroke="none">
<path d="M1986 5104 c-175 -42 -325 -189 -379 -369 -19 -64 -17 -46 -17 -193
l0 -128 -72 -1 c-40 -1 -80 -1 -90 -2 -14 -1 -16 -16 -16 -126 1 -69 -1 -127
-4 -130 -2 -2 -196 -5 -431 -5 -393 -1 -433 -3 -499 -21 -245 -67 -417 -250
-467 -496 -7 -32 -10 -219 -8 -504 l2 -452 43 -14 42 -15 0 -1244 c0 -1101 2
-1249 15 -1282 19 -44 48 -76 89 -100 29 -16 176 -17 2354 -19 2077 -3 2327
-1 2360 12 49 21 81 52 103 100 18 38 19 96 19 1286 l0 1246 46 18 45 17 -3
482 -4 481 -25 71 c-77 211 -237 359 -449 413 -68 18 -116 20 -499 20 -234 1
-427 3 -429 6 -2 2 -5 61 -5 131 l-2 128 -87 0 -88 -1 0 126 c0 202 -39 309
-154 426 -70 70 -155 118 -247 139 -91 22 -1055 22 -1143 0z m191 -353 c219
-86 511 -87 763 -1 115 39 171 29 217 -38 15 -23 18 -48 18 -162 l0 -135 -75
-1 c-41 -1 -80 -2 -87 -3 -8 -1 -11 -32 -11 -98 -1 -54 -1 -113 -1 -130 l-1
-33 -440 -2 -440 -3 -1 45 c0 25 0 86 0 135 l1 90 -87 0 -88 0 -1 128 c-1 139
8 173 55 206 47 34 97 34 178 2z"/>
</g>
</svg>
